<svg width="108" height="24" viewBox="0 0 108 24" fill="none" xmlns="http://www.w3.org/2000/svg">
<g clip-path="url(#clip0_184_22848)">
<path d="M42 12C42 5.37258 36.6274 0 30 0C23.3726 0 18 5.37258 18 12C18 18.6274 23.3726 24 30 24C36.6274 24 42 18.6274 42 12Z" fill="#FF1C2E"/>
<path d="M22.488 9.75928C22.488 11.5154 23.2965 11.9393 26.5303 11.9393C26.3329 11.2126 25.2479 9.75928 22.488 9.75928Z" fill="white"/>
<path d="M37.512 9.75928C37.512 11.5154 36.7035 11.9393 33.4697 11.9393C33.6671 11.2126 34.7521 9.75928 37.512 9.75928Z" fill="white"/>
<path d="M30 11.5613C28.9063 11.5613 27.4109 11.45 26.7998 11.358C27.038 12.0121 27.9226 13.3201 29.3891 13.3201H30.6109C32.0774 13.3201 32.962 12.0121 33.2002 11.358C32.5891 11.45 31.0937 11.5613 30 11.5613Z" fill="white"/>
<path d="M27.2662 5.92807C26.129 5.98884 25.2663 7.23466 24.9134 8.17661C25.201 8.3893 26.6074 8.8146 29.9326 8.8146C33.2579 8.8146 34.6643 8.3892 34.9518 8.17651C34.599 7.23456 33.7363 5.98875 32.5991 5.92798L27.2662 5.92807Z" fill="white"/>
<path d="M22.5802 15.8448V15.476H24.3181V15.8448H23.6703V17.592H23.2281V15.8448H22.5802ZM25.7973 17.592V15.476H26.6321C26.7919 15.476 26.9283 15.5045 27.0413 15.5617C27.1549 15.6182 27.2414 15.6984 27.3006 15.8025C27.3606 15.9058 27.3905 16.0274 27.3905 16.1672C27.3905 16.3077 27.3602 16.4286 27.2996 16.5299C27.239 16.6304 27.1512 16.7076 27.0361 16.7613C26.9218 16.815 26.7833 16.8419 26.6208 16.8419H26.0618V16.4823H26.5484C26.6338 16.4823 26.7048 16.4706 26.7613 16.4472C26.8177 16.4238 26.8598 16.3887 26.8873 16.3418C26.9156 16.295 26.9297 16.2368 26.9297 16.1672C26.9297 16.0969 26.9156 16.0377 26.8873 15.9895C26.8598 15.9413 26.8174 15.9047 26.7602 15.88C26.7037 15.8545 26.6325 15.8417 26.5464 15.8417H26.2446V17.592H25.7973ZM26.94 16.629L27.4659 17.592H26.972L26.4575 16.629H26.94ZM30.8441 16.534C30.8441 16.7647 30.8004 16.9611 30.7129 17.1229C30.6261 17.2848 30.5077 17.4084 30.3575 17.4939C30.208 17.5786 30.04 17.6209 29.8533 17.6209C29.6652 17.6209 29.4965 17.5782 29.347 17.4928C29.1975 17.4074 29.0794 17.2838 28.9926 17.1219C28.9058 16.96 28.8624 16.7641 28.8624 16.534C28.8624 16.3032 28.9058 16.1069 28.9926 15.945C29.0794 15.7832 29.1975 15.6599 29.347 15.5752C29.4965 15.4897 29.6652 15.447 29.8533 15.447C30.04 15.447 30.208 15.4897 30.3575 15.5752C30.5077 15.6599 30.6261 15.7832 30.7129 15.945C30.8004 16.1069 30.8441 16.3032 30.8441 16.534ZM30.3906 16.534C30.3906 16.3845 30.3682 16.2585 30.3234 16.1558C30.2793 16.0532 30.217 15.9754 30.1364 15.9223C30.0558 15.8693 29.9614 15.8428 29.8533 15.8428C29.7451 15.8428 29.6508 15.8693 29.5702 15.9223C29.4896 15.9754 29.4269 16.0532 29.3821 16.1558C29.338 16.2585 29.316 16.3845 29.316 16.534C29.316 16.6835 29.338 16.8095 29.3821 16.9121C29.4269 17.0148 29.4896 17.0926 29.5702 17.1457C29.6508 17.1987 29.7451 17.2252 29.8533 17.2252C29.9614 17.2252 30.0558 17.1987 30.1364 17.1457C30.217 17.0926 30.2793 17.0148 30.3234 16.9121C30.3682 16.8095 30.3906 16.6835 30.3906 16.534ZM34.1384 15.476V17.592H33.752L32.8314 16.2602H32.8159V17.592H32.3685V15.476H32.7611L33.6745 16.8068H33.6931V15.476H34.1384ZM35.701 17.592V15.476H36.1484V16.409H36.1763L36.9378 15.476H37.474L36.6888 16.4234L37.4833 17.592H36.9481L36.3684 16.722L36.1484 16.9907V17.592H35.701Z" fill="white"/>
</g>
<path d="M50 9.89949V8.90947H54.6645V9.89949H52.9257V14.589H51.7388V9.89949H50ZM58.6345 14.589V8.90947H60.8753C61.3042 8.90947 61.6703 8.98619 61.9735 9.13963C62.2786 9.29127 62.5105 9.50661 62.6696 9.78579C62.8304 10.0631 62.9108 10.3894 62.9108 10.7647C62.9108 11.1419 62.8294 11.4663 62.6668 11.7381C62.5041 12.0081 62.2684 12.2151 61.9596 12.3593C61.6527 12.5035 61.2811 12.5757 60.8448 12.5757H59.3445V11.6106H60.6506C60.8799 11.6106 61.0703 11.5791 61.2219 11.5163C61.3735 11.4534 61.4863 11.3592 61.5603 11.2334C61.6361 11.1077 61.674 10.9515 61.674 10.7647C61.674 10.5762 61.6361 10.4171 61.5603 10.2877C61.4863 10.1583 61.3726 10.0603 61.2192 9.99379C61.0675 9.92538 60.8762 9.89117 60.6451 9.89117H59.8353V14.589H58.6345ZM61.7017 12.0043L63.1133 14.589H61.7876L60.4066 12.0043H61.7017ZM72.1804 11.7492C72.1804 12.3686 72.063 12.8955 71.8282 13.33C71.5953 13.7644 71.2773 14.0963 70.8743 14.3255C70.4731 14.5529 70.022 14.6666 69.5209 14.6666C69.0162 14.6666 68.5633 14.552 68.1621 14.3228C67.7608 14.0935 67.4438 13.7616 67.2108 13.3272C66.9779 12.8927 66.8614 12.3668 66.8614 11.7492C66.8614 11.1299 66.9779 10.603 67.2108 10.1685C67.4438 9.734 67.7608 9.40309 68.1621 9.1757C68.5633 8.94645 69.0162 8.83179 69.5209 8.83179C70.022 8.83179 70.4731 8.94645 70.8743 9.1757C71.2773 9.40309 71.5953 9.734 71.8282 10.1685C72.063 10.603 72.1804 11.1299 72.1804 11.7492ZM70.963 11.7492C70.963 11.348 70.9029 11.0097 70.7827 10.7343C70.6644 10.4587 70.4971 10.2498 70.2808 10.1075C70.0645 9.96513 69.8112 9.89395 69.5209 9.89395C69.2307 9.89395 68.9774 9.96513 68.7611 10.1075C68.5448 10.2498 68.3765 10.4587 68.2563 10.7343C68.138 11.0097 68.0789 11.348 68.0789 11.7492C68.0789 12.1504 68.138 12.4888 68.2563 12.7642C68.3765 13.0397 68.5448 13.2486 68.7611 13.391C68.9774 13.5333 69.2307 13.6045 69.5209 13.6045C69.8112 13.6045 70.0645 13.5333 70.2808 13.391C70.4971 13.2486 70.6644 13.0397 70.7827 12.7642C70.9029 12.4888 70.963 12.1504 70.963 11.7492ZM81.0223 8.90947V14.589H79.9851L77.5141 11.0143H77.4725V14.589H76.2718V8.90947H77.3256L79.7771 12.4814H79.827V8.90947H81.0223ZM85.2162 14.589V8.90947H86.417V11.4137H86.4919L88.5358 8.90947H89.975L87.8674 11.4525L90 14.589H88.5635L87.0077 12.254L86.417 12.975V14.589H85.2162Z" fill="#FF1C2E"/>
<defs>
<clipPath id="clip0_184_22848">
<rect width="24" height="24" fill="white" transform="translate(18)"/>
</clipPath>
</defs>
</svg>
