<svg width="24" height="24" viewBox="0 0 24 24" fill="none" xmlns="http://www.w3.org/2000/svg">
<path d="M19 13.5C19.825 13.5 20.5 12.825 20.5 12C20.5 11.175 19.825 10.5 19 10.5C18.175 10.5 17.5 11.175 17.5 12C17.5 12.825 18.175 13.5 19 13.5Z" fill="#292D32" stroke="#292930" stroke-width="1.5"/>
<path d="M5 13.5C5.825 13.5 6.5 12.825 6.5 12C6.5 11.175 5.825 10.5 5 10.5C4.175 10.5 3.5 11.175 3.5 12C3.5 12.825 4.175 13.5 5 13.5Z" fill="#292D32" stroke="#292930" stroke-width="1.5"/>
<path d="M12 13.5C12.825 13.5 13.5 12.825 13.5 12C13.5 11.175 12.825 10.5 12 10.5C11.175 10.5 10.5 11.175 10.5 12C10.5 12.825 11.175 13.5 12 13.5Z" fill="#292D32" stroke="#292930" stroke-width="1.5"/>
</svg>
