<svg width="24" height="24" viewBox="0 0 24 24" fill="none" xmlns="http://www.w3.org/2000/svg">
<path d="M11.5 20C16.7467 20 21 15.7467 21 10.5C21 5.25329 16.7467 1 11.5 1C6.25329 1 2 5.25329 2 10.5C2 15.7467 6.25329 20 11.5 20Z" stroke="#292D32" stroke-width="1.5" stroke-linecap="round" stroke-linejoin="round"/>
<path d="M22 21L20 19" stroke="#292D32" stroke-width="1.5" stroke-linecap="round" stroke-linejoin="round"/>
<path d="M16.5 13.665C16.5 13.845 16.4599 14.03 16.3748 14.21C16.2897 14.39 16.1795 14.56 16.0343 14.72C15.7889 14.99 15.5185 15.185 15.2131 15.31C14.9126 15.435 14.5871 15.5 14.2366 15.5C13.7258 15.5 13.18 15.38 12.6042 15.135C12.0283 14.89 11.4524 14.56 10.8816 14.145C10.3057 13.725 9.75989 13.26 9.23911 12.745C8.72333 12.225 8.25764 11.68 7.84201 11.11C7.4314 10.54 7.1009 9.97 6.86054 9.405C6.62018 8.835 6.5 8.29 6.5 7.77C6.5 7.43 6.56009 7.105 6.68027 6.805C6.80045 6.5 6.99074 6.22 7.25613 5.97C7.57661 5.655 7.92714 5.5 8.2977 5.5C8.43791 5.5 8.57812 5.53 8.70331 5.59C8.8335 5.65 8.94867 5.74 9.03881 5.87L10.2006 7.505C10.2907 7.63 10.3558 7.745 10.4009 7.855C10.4459 7.96 10.471 8.065 10.471 8.16C10.471 8.28 10.4359 8.4 10.3658 8.515C10.3007 8.63 10.2056 8.75 10.0854 8.87L9.70481 9.265C9.64972 9.32 9.62469 9.385 9.62469 9.465C9.62469 9.505 9.62969 9.54 9.63971 9.58C9.65473 9.62 9.66975 9.65 9.67977 9.68C9.76991 9.845 9.92514 10.06 10.1455 10.32C10.3708 10.58 10.6112 10.845 10.8716 11.11C11.142 11.375 11.4024 11.62 11.6678 11.845C11.9281 12.065 12.1435 12.215 12.3137 12.305C12.3388 12.315 12.3688 12.33 12.4039 12.345C12.4439 12.36 12.484 12.365 12.529 12.365C12.6142 12.365 12.6793 12.335 12.7344 12.28L13.1149 11.905C13.2401 11.78 13.3603 11.685 13.4755 11.625C13.5906 11.555 13.7058 11.52 13.831 11.52C13.9261 11.52 14.0263 11.54 14.1365 11.585C14.2466 11.63 14.3618 11.695 14.487 11.78L16.1445 12.955C16.2747 13.045 16.3648 13.15 16.4199 13.275C16.47 13.4 16.5 13.525 16.5 13.665Z" stroke="#292D32" stroke-miterlimit="10"/>
</svg>
