<svg width="24" height="24" viewBox="0 0 24 24" fill="none" xmlns="http://www.w3.org/2000/svg">
<path d="M9.13009 2.43893L8.40957 3.28021C8.29799 3.38079 8.20097 3.4849 8.1184 3.59113C7.24612 3.64547 6.79823 3.89261 6.53262 4.16434C6.2044 4.50012 6.02013 5.00293 5.86408 5.74397L4.92288 10.2501H10.1232L9.79818 11.7501H5.62004C4.40983 11.7501 3.9503 12.0348 3.73835 12.2861C3.49053 12.5799 3.3884 13.0328 3.31684 13.7993L2.75689 19.8888L2.75675 19.8903C2.68966 20.6038 3.26531 21.2501 4.04004 21.2501H5.92004C6.35997 21.2501 6.44586 21.1566 6.44748 21.1548C6.48308 21.1211 6.51958 21.0597 6.62853 20.7329L6.82853 20.1329L6.84465 20.0843C6.95698 19.7452 7.12433 19.2401 7.5292 18.8582C7.98742 18.4261 8.62138 18.2501 9.44004 18.2501H14.56C15.3576 18.2501 15.9909 18.3992 16.4538 18.8265C16.855 19.1968 17.026 19.7028 17.1471 20.0609L17.1698 20.1277L17.1716 20.1329L17.3716 20.7329C17.4805 21.0597 17.517 21.121 17.5526 21.1548C17.5542 21.1566 17.6402 21.2501 18.08 21.2501H19.96C20.7348 21.2501 21.3104 20.6038 21.2433 19.8903L20.6833 13.7998L20.6832 13.7988C20.6116 13.0326 20.5095 12.5799 20.2617 12.2861C20.0498 12.0348 19.5903 11.7501 18.38 11.7501H13.9194L15.0636 10.2501H19.0772L18.1361 5.74459C17.9801 5.0036 17.7957 4.5001 17.4675 4.16434C17.1665 3.85642 16.6314 3.58008 15.51 3.58008H14.56C14.5329 3.58008 14.5062 3.57864 14.4798 3.57584L14.8541 2.08008H15.51C16.8786 2.08008 17.8636 2.42373 18.5401 3.11582C19.1893 3.77994 19.44 4.65695 19.604 5.43557L19.6042 5.43673L19.983 7.25027L20 7.25008H21C21.4143 7.25008 21.75 7.58586 21.75 8.00008C21.75 8.41429 21.4143 8.75008 21 8.75008H20.2963L20.7125 10.743C20.9818 10.8966 21.2133 11.0878 21.4083 11.319C21.9955 12.0151 22.1084 12.9271 22.1768 13.6604L22.1769 13.6614L22.7367 19.7499C22.8895 21.3762 21.5852 22.7501 19.96 22.7501H18.08C17.4436 22.7501 16.9123 22.6151 16.52 22.2428C16.1847 21.9246 16.0466 21.5049 15.9639 21.2537L15.9485 21.2073L15.7503 20.6124L15.7494 20.6099C15.5929 20.1516 15.5293 20.0145 15.4363 19.9287C15.3792 19.8759 15.2025 19.7501 14.56 19.7501H9.44004C8.8187 19.7501 8.62766 19.8841 8.55838 19.9494C8.45557 20.0464 8.38892 20.1952 8.25155 20.6073L8.05155 21.2072L8.03621 21.2537C7.95351 21.5049 7.81537 21.9246 7.48008 22.2428C7.08782 22.6151 6.55646 22.7501 5.92004 22.7501H4.04004C2.41504 22.7501 1.11085 21.3768 1.26326 19.7507L1.82329 13.6604C1.89172 12.9271 2.00461 12.0151 2.59173 11.319C2.78675 11.0878 3.01826 10.8966 3.28755 10.743L3.70382 8.75008H3.00004C2.58583 8.75008 2.25004 8.41429 2.25004 8.00008C2.25004 7.58586 2.58583 7.25008 3.00004 7.25008H4.00004L4.01709 7.25027L4.39613 5.43557C4.56005 4.65695 4.81077 3.77994 5.45996 3.11582C6.13647 2.42373 7.12143 2.08008 8.49004 2.08008C8.76093 2.08008 8.99827 2.22369 9.13009 2.43893Z" fill="#292D32"/>
<path d="M9.24742 14.2918L9.15262 14.7293C9.06723 15.1234 9.02681 15.4653 9.0269 15.7496C9.01798 15.7499 9.00903 15.7501 9.00004 15.7501H6.00004C5.58583 15.7501 5.25004 15.4143 5.25004 15.0001C5.25004 14.5859 5.58583 14.2501 6.00004 14.2501H9.00004C9.08672 14.2501 9.16997 14.2648 9.24742 14.2918Z" fill="#292D32"/>
<path d="M15 14.2501C14.5858 14.2501 14.25 14.5859 14.25 15.0001C14.25 15.4143 14.5858 15.7501 15 15.7501H18C18.4143 15.7501 18.75 15.4143 18.75 15.0001C18.75 14.5859 18.4143 14.2501 18 14.2501H15Z" fill="#292D32"/>
<path d="M8.85525 2.75997L8.4096 3.28031C7.47881 4.11932 7.5611 5.20485 8.59279 5.70359L10.8699 6.80438L9.15265 14.7294C8.75196 16.5786 9.34147 17.277 10.46 16.2856L16.6832 8.12688C17.619 7.30244 17.5391 6.2059 16.5 5.70359L14.2229 4.60281L14.684 2.75997" stroke="#292D32" stroke-width="1.5" stroke-miterlimit="10" stroke-linecap="round" stroke-linejoin="round"/>
</svg>
